<svg height="512pt" viewBox="0 0 512 512" width="512pt" xmlns="http://www.w3.org/2000/svg"><path d="m296.386719 228.40625-67.683594-72.351562-151.59375 164.707031 138.503906-46.960938 67.683594 72.351563 151.59375-164.707032zm-13.269531 73.644531-58.8125-62.871093-45.546876 15.441406 50.125-54.460938 58.816407 62.871094 45.542969-15.441406zm0 0"/><path d="m436.71875 70.855469c-48.316406-45.691407-112.496094-70.855469-180.71875-70.855469s-132.402344 25.164062-180.71875 70.855469c-48.546875 45.910156-75.28125 107.015625-75.28125 172.058593 0 70.292969 31.699219 136.457032 87.238281 182.664063v86.421875l79.183594-41.476562c28.632813 10.160156 58.730469 15.304687 89.578125 15.304687 68.222656 0 132.402344-25.164063 180.71875-70.855469 48.546875-45.910156 75.28125-107.015625 75.28125-172.058594 0-65.042968-26.734375-126.148437-75.28125-172.058593zm-180.71875 384.972656c-29.472656 0-58.15625-5.277344-85.257812-15.6875l-6.328126-2.429687-47.175781 24.707031v-51.300781l-5.742187-4.503907c-51.792969-40.628906-81.496094-100.296875-81.496094-163.699219 0-117.402343 101.382812-212.914062 226-212.914062s226 95.511719 226 212.914062c0 117.402344-101.382812 212.914063-226 212.914063zm0 0"/></svg>